<svg xmlns="http://www.w3.org/2000/svg">

  <symbol id="behance" viewBox="0 0 24 24" fill="currentColor">
    <path d="M19.873 22.5H4.13a2.512 2.512 0 01-1.875-.75 2.512 2.512 0 01-.75-1.86V4.125a2.512 2.512 0 01.75-1.875A2.513 2.513 0 014.13 1.5h15.75a2.513 2.513 0 011.875.75 2.513 2.513 0 01.75 1.875v15.75a2.64 2.64 0 01-2.632 2.625zM4.783 7.418c-.045 0-.068 0-.075.06v8.94a.067.067 0 00.075.075h3.352a9.2 9.2 0 002.153-.188 2.573 2.573 0 001.86-2.535v-.037a2.07 2.07 0 00-1.343-2.116 1.987 1.987 0 001.073-1.822 3.616 3.616 0 00-.045-.502c-.308-1.253-1.178-1.875-2.61-1.875h-4.44zM6.553 9h2.152c.885 0 1.328.323 1.328.968a2.25 2.25 0 01-.083.472c-.127.353-.675.525-1.627.525h-1.77V9zm0 3.495h2.205c.967 0 1.447.353 1.447 1.073v.112c0 .795-.427 1.193-1.282 1.193h-2.37v-2.378zm9.405-2.925a3.533 3.533 0 00-1.395.278 3.127 3.127 0 00-1.913 3.074v.533c-.008.64.161 1.271.488 1.822a3.368 3.368 0 002.82 1.426 3.75 3.75 0 002.047-.51c.788-.638 1.178-1.17 1.178-1.59 0-.075 0-.12-.06-.12h-1.695a1.5 1.5 0 01-1.365.787 1.717 1.717 0 01-.413-.067 1.5 1.5 0 01-1.245-1.583h4.823c.045 0 .06 0 .06-.052v-.563c0-.221-.017-.442-.053-.66a3 3 0 00-3.277-2.775zM13.91 7.92s-.045 0-.052.06v.818c0 .052 0 .075.052.075h3.848c.06 0 .09 0 .09-.075V7.98c0-.037 0-.06-.09-.06H13.91zm.57 4.5c.015-.12.042-.238.083-.352a1.335 1.335 0 011.395-1.005c.169 0 .337.018.502.052a1.343 1.343 0 01.99 1.305h-2.97z" />
  </symbol>

  <symbol id="facebook" viewBox="0 0 24 24" fill="currentColor">
    <path d="M19.873 22.5H4.13a2.512 2.512 0 01-1.875-.75 2.512 2.512 0 01-.75-1.86V4.125a2.512 2.512 0 01.75-1.875A2.513 2.513 0 014.13 1.5h15.75a2.513 2.513 0 011.875.75 2.513 2.513 0 01.75 1.875v15.75a2.64 2.64 0 01-2.632 2.625zm-6.81-3.608V12.6h2.122l.315-2.445h-2.437V8.783a2.158 2.158 0 01.067-.75.818.818 0 01.105-.248c.158-.285.57-.427 1.223-.427h1.125V5.205a16.5 16.5 0 00-1.875-.105A2.873 2.873 0 0011 6.495a3.39 3.39 0 00-.472 1.8v1.86h-2.1V12.6h2.077v6.292h2.558z" />
  </symbol>

  <symbol id="github" viewBox="0 0 24 24" fill="currentColor">
    <path d="M4.132 22.501h15.742a2.64 2.64 0 002.633-2.625V4.126a2.514 2.514 0 00-.75-1.875 2.513 2.513 0 00-1.875-.75H4.132a2.513 2.513 0 00-1.875.75 2.513 2.513 0 00-.75 1.875v15.765a2.512 2.512 0 00.75 1.86 2.513 2.513 0 001.875.75z" />
    <path d="M9.755 20.27c-3.75 1.125-3.75-1.875-5.25-2.25m10.5 4.5v-2.902a2.528 2.528 0 00-.705-1.958c2.355-.262 4.83-1.155 4.83-5.25a4.08 4.08 0 00-1.125-2.812 3.803 3.803 0 00-.067-2.828s-.885-.262-2.933 1.11a10.035 10.035 0 00-5.25 0C7.708 6.508 6.823 6.77 6.823 6.77a3.803 3.803 0 00-.068 2.828 4.08 4.08 0 00-1.125 2.835c0 4.065 2.475 4.957 4.83 5.25a2.526 2.526 0 00-.705 1.935v2.902" stroke="#000" stroke-width="1.125" stroke-linecap="round" stroke-linejoin="round"/>
  </symbol>

  <symbol id="glassdoor" viewBox="0 0 24 24" fill="currentColor">
    <path fill-rule="evenodd" clip-rule="evenodd" d="M19.874 22.501H4.132a2.512 2.512 0 01-1.875-.75 2.512 2.512 0 01-.75-1.86V4.126a2.512 2.512 0 01.75-1.875 2.513 2.513 0 011.875-.75h15.75a2.512 2.512 0 011.875.75 2.513 2.513 0 01.75 1.875v15.75a2.64 2.64 0 01-2.633 2.625zm-5.168-5.68h-7.2c0 1.066.805 1.929 1.799 1.929h5.4c.994 0 1.8-.863 1.8-1.928v-7.92c0-.04-.028-.07-.065-.07h-1.67c-.035 0-.064.03-.064.07v7.92zm1.8-9.642c0-1.066-.807-1.929-1.8-1.929H9.305c-.994 0-1.8.864-1.8 1.928v7.92c0 .038.03.07.066.07h1.67c.035 0 .065-.031.065-.07V7.18h7.2z" />
  </symbol>

  <symbol id="instagram" viewBox="0 0 24 24" fill="currentColor">
    <path fill-rule="evenodd" clip-rule="evenodd" d="M19.874 22.501H4.132a2.512 2.512 0 01-1.875-.75 2.512 2.512 0 01-.75-1.86V4.126a2.512 2.512 0 01.75-1.875 2.513 2.513 0 011.875-.75h15.75a2.512 2.512 0 011.875.75 2.513 2.513 0 01.75 1.875v15.75a2.64 2.64 0 01-2.633 2.625zM9.223 5.291c.72-.033.949-.041 2.782-.041 1.834 0 2.063.007 2.783.04.718.034 1.208.147 1.639.314.445.172.82.404 1.195.779.375.375.607.752.779 1.196.166.43.28.92.314 1.638.032.72.04.95.04 2.783 0 1.834-.006 2.063-.04 2.783-.033.718-.148 1.208-.314 1.638-.172.445-.404.82-.779 1.196a3.317 3.317 0 01-1.195.779c-.43.166-.92.28-1.639.313-.72.033-.949.041-2.783.041-1.833 0-2.062-.007-2.782-.04-.719-.034-1.208-.148-1.639-.314a3.299 3.299 0 01-1.196-.779 3.31 3.31 0 01-.778-1.196c-.167-.43-.28-.92-.314-1.638-.032-.72-.04-.95-.04-2.783 0-1.834.006-2.063.04-2.783.033-.719.147-1.208.314-1.638.171-.445.403-.82.778-1.196a3.306 3.306 0 011.196-.779c.43-.167.92-.28 1.639-.314zm5.51 1.214c-.711-.031-.926-.04-2.728-.04l-.025-.017c-1.777 0-2.01.008-2.7.033h-.033c-.658.035-1.013.144-1.25.238-.32.117-.54.27-.775.505A2 2 0 006.716 8c-.093.236-.202.598-.237 1.256l-.001.041c-.024.685-.033.93-.033 2.694 0 1.764.009 2.007.033 2.686l.001.038c.035.658.144 1.021.237 1.258.118.312.27.54.506.776s.455.38.776.505c.236.093.599.203 1.257.237.716.033.927.042 2.733.042s2.017-.007 2.734-.04c.658-.03 1.02-.14 1.257-.232.313-.122.54-.268.776-.504.236-.237.38-.461.506-.777.093-.238.202-.595.237-1.253.033-.711.041-.926.041-2.728s-.007-2.016-.04-2.728c-.029-.658-.14-1.015-.232-1.253a2.084 2.084 0 00-.503-.777 2.096 2.096 0 00-.778-.504c-.237-.093-.594-.202-1.253-.233zM8.54 12a3.466 3.466 0 116.932 0 3.466 3.466 0 01-6.932 0zm1.216 0a2.25 2.25 0 104.5.001 2.25 2.25 0 00-4.5-.001zm5.854-2.793a.81.81 0 10-.001-1.621.81.81 0 000 1.621z" />
  </symbol>

  <symbol id="linkedin" viewBox="0 0 24 24" fill="currentColor">
    <path d="M19.873 22.5H4.13a2.512 2.512 0 01-1.875-.75 2.512 2.512 0 01-.75-1.86V4.125a2.512 2.512 0 01.75-1.875A2.513 2.513 0 014.13 1.5h15.75a2.513 2.513 0 011.875.75 2.513 2.513 0 01.75 1.875v15.75a2.64 2.64 0 01-2.632 2.625zM6.838 8.543a1.665 1.665 0 001.2-.435 1.373 1.373 0 00.45-1.035A1.568 1.568 0 008.015 6a1.605 1.605 0 00-1.132-.412 1.725 1.725 0 00-1.2.412 1.402 1.402 0 00-.428 1.073 1.41 1.41 0 00.428 1.035 1.575 1.575 0 001.155.435zM8.255 9.75H5.398v8.655h2.857V9.75zm10.388 3.705a4.118 4.118 0 00-.93-3 3.166 3.166 0 00-2.363-.952 2.58 2.58 0 00-1.755.495 4.5 4.5 0 00-.84.982V9.75H9.898v8.655h2.857v-5.213a.622.622 0 01.075-.322c.116-.286.296-.543.525-.75.266-.23.61-.348.96-.33a1.192 1.192 0 011.118.563c.236.436.35.928.33 1.425v4.612h2.887l-.007-4.935zm-5.888-2.43a.037.037 0 01.026-.045.039.039 0 01.02 0v.045h-.046z" />
  </symbol>

  <symbol id="pinterest" viewBox="0 0 24 24" fill="currentColor">
    <path fill-rule="evenodd" clip-rule="evenodd" d="M19.874 22.501H4.132a2.512 2.512 0 01-1.875-.75 2.512 2.512 0 01-.75-1.86V4.126a2.512 2.512 0 01.75-1.875 2.513 2.513 0 011.875-.75h15.75a2.512 2.512 0 011.875.75 2.513 2.513 0 01.75 1.875v15.75a2.64 2.64 0 01-2.633 2.625zm-8.94-7.423a1.48 1.48 0 01.067-.251l.029.024a.262.262 0 01.07.073c.392.51.936.8 1.57.92.688.127 1.368.024 2.019-.21.296-.11.568-.26.83-.429.74-.478 1.258-1.129 1.65-1.873.183-.344.339-.7.445-1.076.041-.142.079-.285.116-.428l.08-.297a1.39 1.39 0 00.035-.23c.007-.07.013-.141.031-.211.076-.306.103-.62.113-.929l.006-.138c.013-.318.027-.637-.046-.96-.028-.124-.048-.254-.068-.384a12.695 12.695 0 00-.03-.197 1.01 1.01 0 00-.071-.288 5.93 5.93 0 01-.13-.306c-.052-.126-.103-.253-.166-.375a5.071 5.071 0 00-.866-1.26 5.38 5.38 0 00-1.02-.845 4.615 4.615 0 00-.75-.4c-.391-.16-.783-.313-1.215-.375a9.87 9.87 0 01-.308-.05 4.703 4.703 0 00-.648-.079 8.174 8.174 0 00-1.786.135 7.738 7.738 0 00-.973.25 5.787 5.787 0 00-1.41.71c-.572.388-1.07.847-1.455 1.404A5.961 5.961 0 006.4 8.176a7.137 7.137 0 00-.312 1.003c-.09.36-.085.728-.079 1.096l.003.193c.003.616.15 1.2.405 1.76a2.768 2.768 0 001.348 1.37c.205.097.448.006.501-.194.07-.26.14-.522.196-.785a.428.428 0 00-.11-.419 1.395 1.395 0 01-.269-.366 3.713 3.713 0 01-.302-.9c-.096-.494-.036-.976.04-1.454.063-.385.2-.767.385-1.123.24-.454.545-.86.933-1.2a4.059 4.059 0 011.285-.795c.455-.175.93-.275 1.42-.294.4-.016.804-.022 1.196.069.042.01.085.017.129.024.08.013.16.027.233.057l.204.08c.27.103.539.206.785.373.369.254.69.541.907.907.348.588.534 1.23.518 1.914a34.6 34.6 0 00-.005.176 7.896 7.896 0 01-.059.944c-.07.478-.172.95-.322 1.407-.116.347-.252.694-.458 1.004-.199.3-.405.6-.707.825a2.391 2.391 0 01-.89.428c-.325.079-.647.072-.926-.046-.498-.213-.837-.566-.873-1.126a1.337 1.337 0 01.008-.22c.006-.066.012-.13.008-.196-.009-.178.045-.346.099-.512.022-.068.043-.136.06-.204.059-.219.128-.435.198-.651l.065-.206.042-.136c.1-.324.2-.65.25-.987.067-.444.103-.875-.07-1.313-.272-.679-1.138-.847-1.752-.475-.555.337-.794.856-.943 1.422a2.757 2.757 0 00-.05 1.257c.037.253.076.51.19.745.05.103.069.203.042.297-.056.194-.1.388-.142.585-.032.143-.068.287-.103.431a16.25 16.25 0 00-.103.432 10.67 10.67 0 01-.088.363c-.05.196-.098.391-.131.59-.02.115-.053.229-.086.342a2.825 2.825 0 00-.09.368c-.04.257-.1.513-.163.763-.039.153-.074.307-.109.462a14.74 14.74 0 01-.147.605c-.092.346-.106.707-.119 1.063v.003c-.023.682.003 1.36.1 2.039a.94.94 0 01.004.06c.006.092.011.187.125.215.088.021.126-.045.164-.109a.531.531 0 01.039-.06c.335-.428.644-.879.896-1.357.163-.303.325-.613.445-.932.14-.363.242-.738.338-1.11.06-.232.114-.465.167-.698.06-.26.12-.522.189-.781.01-.04.018-.08.026-.12z" />
  </symbol>

  <symbol id="skype" viewBox="0 0 21 22" fill="currentColor">
    <g clip-path="url(#clip)"><path d="M18.369 21.5H2.626a2.512 2.512 0 01-1.875-.75 2.512 2.512 0 01-.75-1.86V3.125a2.512 2.512 0 01.75-1.875A2.513 2.513 0 012.626.5h15.75a2.513 2.513 0 011.875.75 2.513 2.513 0 01.75 1.875v15.75A2.64 2.64 0 0118.37 21.5zm-4.935-4.043a3.66 3.66 0 003.645-3.66 3.428 3.428 0 00-.653-2.047c.05-.272.075-.548.075-.825a5.91 5.91 0 00-.48-2.377 6.068 6.068 0 00-5.602-3.705 4.763 4.763 0 00-.99.06 3.518 3.518 0 00-1.973-.585 3.473 3.473 0 00-2.542 1.065A3.517 3.517 0 003.849 8c0 .712.203 1.41.585 2.01-.075.31-.113.627-.113.945a5.73 5.73 0 00.488 2.37c.308.72.748 1.376 1.297 1.935a6.044 6.044 0 004.313 1.77 8.098 8.098 0 001.125-.082 3.54 3.54 0 001.89.51zm-3.083-2.032a4.994 4.994 0 01-1.695-.263 3.606 3.606 0 01-1.327-.87 1.425 1.425 0 01-.578-1.042.75.75 0 01.27-.645.923.923 0 01.593-.21c.352 0 .75.27 1.155.81.093.114.202.215.322.3.16.093.328.168.503.225.33.117.677.175 1.027.172a1.545 1.545 0 001.223-.502c.16-.14.26-.336.277-.548a1.579 1.579 0 000-.217c0-.12-.135-.248-.337-.39a3.196 3.196 0 00-1.553-.525 6.037 6.037 0 01-2.302-.825 1.957 1.957 0 01-1.05-1.68v-.217a2.572 2.572 0 01.9-1.86 3.337 3.337 0 011.792-.75h.75a3.96 3.96 0 012.85 1.042 1.245 1.245 0 01.57 1.005.75.75 0 01-.3.622.75.75 0 01-.495.203.75.75 0 01-.45-.203 15.195 15.195 0 01-.547-.45 6.516 6.516 0 00-.713-.517 1.83 1.83 0 00-1.852 0c-.428.255-.638.54-.638.848a.96.96 0 00.15.45c.208.226.49.373.795.412.428.112.863.202 1.305.292 1.613.33 2.603.968 3 1.928.104.237.158.492.158.75-.01.214-.049.426-.113.63-.114.34-.307.648-.562.9a3.81 3.81 0 01-1.095.795 3.428 3.428 0 01-1.365.345 6.353 6.353 0 01-.668-.015z" /></g>
    <defs>
      <clipPath id="clip"><rect y=".499" width="21.003" height="21.003" rx="3" /></clipPath>
    </defs>
  </symbol>

  <symbol id="stackoverflow" viewBox="0 0 24 24" fill="currentColor">
    <path fill-rule="evenodd" clip-rule="evenodd" d="M19.873 22.5H4.13a2.512 2.512 0 01-1.875-.75 2.512 2.512 0 01-.75-1.86V4.125a2.512 2.512 0 01.75-1.875A2.513 2.513 0 014.13 1.5h15.75a2.513 2.513 0 011.875.75 2.513 2.513 0 01.75 1.875v15.75a2.64 2.64 0 01-2.632 2.625zM8.425 16.385h6.046v-1.21H8.425v1.21zm5.42-11.135l-.971.722 3.608 4.851.97-.722-3.608-4.851zm-3 2.86l4.646 3.87.774-.93-4.646-3.869-.774.93zM9.328 10.8l5.481 2.552.51-1.096-5.48-2.553-.51 1.096zm-.783 2.832l5.917 1.244.249-1.183-5.917-1.244-.249 1.183zm7.128 3.962v-3.628h1.209v4.838H6.005v-4.838h1.21v3.628h8.458z" />
  </symbol>

  <symbol id="twitter" viewBox="-2 -1 24 24" fill="currentColor">
    <path d="M19.7433 0.5H2.25638C1.28622 0.5 0.499817 1.28641 0.499817 2.25657V19.7435C0.499817 20.7136 1.28622 21.5 2.25638 21.5H19.7433C20.7135 21.5 21.4999 20.7136 21.4999 19.7435V2.25657C21.4999 1.28641 20.7135 0.5 19.7433 0.5ZM14.0881 18.6364L9.92387 12.7058L4.71074 18.6364H3.36346L9.32641 11.8546L3.36346 3.36364H7.91154L11.8539 8.97825L16.7935 3.36364H18.1408L12.4546 9.83131L18.6362 18.6364H14.0881Z" />
  </symbol>

  <symbol id="youtube" viewBox="0 0 21 22" fill="currentColor">
    <path d="M18.372 21.5H2.629a2.512 2.512 0 01-1.875-.75 2.512 2.512 0 01-.75-1.86V3.125a2.512 2.512 0 01.75-1.875A2.513 2.513 0 012.63.5h15.75a2.513 2.513 0 011.875.75 2.513 2.513 0 01.75 1.875v15.75a2.64 2.64 0 01-2.632 2.625zm-7.815-5.497h2.775c1.5-.053 2.34-.098 2.55-.143a1.8 1.8 0 00.892-.383c.27-.222.473-.516.585-.847a9.248 9.248 0 00.345-3.068V10.37a20.79 20.79 0 00-.142-2.325 2.768 2.768 0 00-.555-1.402c-.135-.143-.225-.21-.278-.218-.215-.18-.474-.3-.75-.345a41.25 41.25 0 00-5.475-.202c-.75 0-1.642 0-2.64.045-.953-.01-1.905.048-2.85.172a1.732 1.732 0 00-1.102.653 3.36 3.36 0 00-.48 1.297 22.415 22.415 0 00-.128 2.325c-.07 1.267.009 2.538.233 3.788.045.257.118.508.217.75.246.428.65.743 1.125.877l.563.09c.445.056.893.09 1.342.098 1.718.007 2.97.03 3.773.03zm-1.553-3.196V8.75l3.195 1.665c.465.24.698.368.698.375l-3.893 2.018z" />
  </symbol>

</svg>