<svg xmlns="http://www.w3.org/2000/svg">

  <symbol id="facebook" viewBox="0 0 7 14" fill="currentColor">
    <path d="M6.72463 4.88959H4.61206V3.50405C4.61206 2.98371 4.95692 2.8624 5.19982 2.8624C5.44216 2.8624 6.69064 2.8624 6.69064 2.8624V0.574908L4.63748 0.566895C2.35828 0.566895 1.8396 2.27298 1.8396 3.36478V4.88959H0.521484V7.24672H1.8396C1.8396 10.2717 1.8396 13.9166 1.8396 13.9166H4.61206C4.61206 13.9166 4.61206 10.2358 4.61206 7.24672H6.48284L6.72463 4.88959Z" />
  </symbol>

  <symbol id="instagram" viewBox="0 0 14 14" fill="currentColor">
    <path d="M6.99879 3.76978C5.11476 3.76978 3.55371 5.30391 3.55371 7.21486C3.55371 9.1258 5.08785 10.6599 6.99879 10.6599C8.90974 10.6599 10.4439 9.09889 10.4439 7.21486C10.4439 5.33083 8.88282 3.76978 6.99879 3.76978ZM6.99879 9.42186C5.78763 9.42186 4.79179 8.42602 4.79179 7.21486C4.79179 6.0037 5.78763 5.00785 6.99879 5.00785C8.20995 5.00785 9.2058 6.0037 9.2058 7.21486C9.2058 8.42602 8.20995 9.42186 6.99879 9.42186Z" />
    <path d="M10.5784 4.4695C11.0095 4.4695 11.3589 4.12005 11.3589 3.68897C11.3589 3.2579 11.0095 2.90845 10.5784 2.90845C10.1473 2.90845 9.79785 3.2579 9.79785 3.68897C9.79785 4.12005 10.1473 4.4695 10.5784 4.4695Z" />
    <path d="M12.5973 1.6704C11.8975 0.9437 10.9017 0.566895 9.77128 0.566895H4.22685C1.88527 0.566895 0.324219 2.12795 0.324219 4.46953V9.98704C0.324219 11.1444 0.701025 12.1402 1.45464 12.8669C2.18133 13.5667 3.15026 13.9166 4.25377 13.9166H9.74436C10.9017 13.9166 11.8706 13.5398 12.5704 12.8669C13.2971 12.1671 13.6739 11.1713 13.6739 10.014V4.46953C13.6739 3.33911 13.2971 2.37018 12.5973 1.6704ZM12.4897 10.014C12.4897 10.8483 12.1936 11.5212 11.7091 11.9787C11.2247 12.4363 10.5518 12.6785 9.74436 12.6785H4.25377C3.44632 12.6785 2.77346 12.4363 2.28899 11.9787C1.80453 11.4943 1.5623 10.8214 1.5623 9.98704V4.46953C1.5623 3.66209 1.80453 2.98922 2.28899 2.50475C2.74654 2.0472 3.44632 1.80497 4.25377 1.80497H9.79819C10.6056 1.80497 11.2785 2.0472 11.763 2.53167C12.2205 3.01613 12.4897 3.689 12.4897 4.46953V10.014Z" />
  </symbol>

  <symbol id="linkedin" viewBox="0 0 15 14" fill="currentColor">
    <path d="M0.643909 4.90896H3.63715V13.9166H0.643909V4.90896ZM2.16057 0.566895C1.1361 0.566895 0.466797 1.23946 0.466797 2.12223C0.466797 2.98684 1.11652 3.67895 2.12139 3.67895H2.14048C3.18453 3.67895 3.83471 2.9868 3.83471 2.12223C3.81513 1.23946 3.18456 0.566895 2.16057 0.566895ZM10.9864 4.69736C9.39754 4.69736 8.68574 5.57128 8.28865 6.18416V4.90896H5.29451C5.33415 5.75398 5.29451 13.9166 5.29451 13.9166H8.28865V8.8861C8.28865 8.61667 8.30823 8.34824 8.38701 8.15523C8.6038 7.61738 9.09643 7.06041 9.92276 7.06041C11.0069 7.06041 11.4399 7.88681 11.4399 9.09716V13.9166H14.4336V8.75142C14.4336 5.9847 12.957 4.69736 10.9864 4.69736Z" />
  </symbol>

  <symbol id="calendar" viewBox="0 0 18 24" fill="currentColor">
    <path d="M0.75 5.25V8.25H17.25V5.25H0.75ZM13.5 4.5H18V21H0V4.5H4.5V3H5.25V4.5H12.75V3H13.5V4.5ZM17.25 20.25V9H0.75V20.25H17.25ZM17.25 8.25V5.25H13.5V6.75H12.75V5.25H5.25V6.75H4.5V5.25H0.75V8.25H17.25Z" />
  </symbol>

  <symbol id="arrow-right" viewBox="0 0 24 24" fill="currentColor">
    <path d="M22 12.6904L18 8.69043V11.6904H3V13.6904H18V16.6904L22 12.6904Z" />
  </symbol>

  <symbol id="chevron-down" viewBox="0 0 8 5" stroke="currentColor" fill="none">
    <path d="M1 1L4 4L7 1" stroke-width="1.5" stroke-linecap="round" stroke-linejoin="round"/>
  </symbol>

  <symbol id="mail" viewBox="0 0 24 20" fill="currentColor">
    <path d="M20 0H4C1.8 0 0 2 0 4.444v11.112C0 18 1.8 20 4 20h16c2.2 0 4-2 4-4.444V4.444C24 2 22.2 0 20 0zm1.6 6.444l-7.9 5.89c-.5.333-1.1.555-1.7.555-.6 0-1.2-.222-1.7-.556L2.4 6.444c-.4-.333-.5-1-.2-1.555.3-.445.9-.556 1.4-.222l7.9 5.889c.3.222.8.222 1.1 0l7.9-5.89c.5-.333 1.1-.222 1.4.334.2.444.1 1.111-.3 1.444z" />
  </symbol>

  <symbol id="map-marker" viewBox="0 0 15 20" fill="currentColor">
    <path d="M7.5 20S15 12.893 15 7.5a7.5 7.5 0 00-15 0C0 12.893 7.5 20 7.5 20zm0-8.75a3.75 3.75 0 110-7.5 3.75 3.75 0 010 7.5z" />
  </symbol>

  <symbol id="phone" viewBox="0 0 20 20" fill="currentColor">
    <path d="M20 15.795c0 .256-.047.59-.142 1.002a5.643 5.643 0 01-.298.973c-.2.473-.777.975-1.733 1.506-.89.483-1.771.724-2.642.724-.256 0-.505-.017-.746-.05a6.12 6.12 0 01-.817-.177 11.63 11.63 0 01-.675-.206c-.146-.052-.41-.15-.788-.291-.379-.142-.61-.228-.696-.256a12.846 12.846 0 01-2.486-1.18c-1.212-.747-2.464-1.768-3.757-3.06-1.292-1.293-2.313-2.545-3.06-3.757A12.863 12.863 0 01.98 8.537a30.249 30.249 0 00-.256-.696c-.142-.379-.239-.642-.29-.788C.38 6.906.312 6.68.226 6.378A6.139 6.139 0 01.05 5.56 5.48 5.48 0 010 4.815c0-.87.241-1.752.724-2.642C1.254 1.217 1.757.64 2.23.44c.237-.104.561-.203.973-.298C3.615.047 3.95 0 4.205 0c.132 0 .232.014.298.043.17.056.421.416.753 1.08.104.18.246.435.426.766.18.332.345.632.497.902.151.27.298.523.44.76.029.038.112.156.249.355.137.2.239.367.305.505.067.137.1.272.1.404 0 .19-.135.426-.405.71-.27.285-.564.545-.88.782-.318.237-.612.487-.881.753-.27.265-.405.483-.405.653a.96.96 0 00.07.32c.048.128.088.225.121.29.034.067.1.18.2.342.099.16.153.25.163.27.72 1.297 1.543 2.41 2.471 3.338.928.928 2.041 1.752 3.338 2.471.02.01.11.064.27.164.161.1.275.165.341.199.066.033.163.073.291.12a.961.961 0 00.32.071c.17 0 .388-.135.653-.405.266-.27.516-.563.753-.88.237-.318.497-.611.781-.88.284-.27.521-.406.71-.406.133 0 .268.033.405.1.138.066.306.168.505.305.199.137.317.22.355.249.237.142.49.288.76.44.27.152.57.317.902.497.331.18.587.322.767.426.663.332 1.023.583 1.08.753a.793.793 0 01.042.298z" />
  </symbol>
  
</svg>